<svg width="201" height="231" viewBox="0 0 201 231" fill="none" xmlns="http://www.w3.org/2000/svg">
<path d="M75.3209 185.859C58.8092 185.859 45.3762 172.45 45.3762 155.968C45.3762 151.231 41.5289 147.39 36.7828 147.39C32.0368 147.39 28.1895 151.231 28.1895 155.968C28.1895 181.91 49.3324 203.014 75.3209 203.014C80.0665 203.014 83.9143 199.174 83.9143 194.437C83.9143 189.699 80.0665 185.859 75.3209 185.859Z" fill="#959595"/>
<path d="M101.104 85.6412V69.1966C101.104 64.4596 97.2568 60.6188 92.5107 60.6188H83.9138V49.0285C83.9138 31.9178 97.8603 17.9965 115.002 17.9965C132.145 17.9965 146.091 31.9178 146.091 49.0285V69.1966C146.091 73.9337 149.938 77.7745 154.684 77.7745C159.43 77.7745 163.278 73.9341 163.278 69.1966V49.0285C163.278 22.4572 141.622 0.84082 115.002 0.84082C88.3839 0.84082 66.7275 22.4572 66.7275 49.0285V60.6188H58.1309C53.3853 60.6188 49.5375 64.4592 49.5375 69.1966V85.6412C20.2467 96.3268 0.3125 124.356 0.3125 155.968C0.3125 197.253 33.961 230.841 75.3208 230.841C116.681 230.841 150.329 197.253 150.329 155.968C150.329 124.356 130.395 96.3268 101.104 85.6412ZM75.3208 213.685C43.4378 213.685 17.4993 187.794 17.4993 155.968C17.4993 129.867 35.1203 106.938 60.3496 100.207C64.1087 99.2045 66.7243 95.8043 66.7243 91.9204V77.7745H83.9178V91.9204C83.9178 95.8048 86.533 99.204 90.2925 100.207C115.523 106.938 133.143 129.868 133.143 155.968C133.142 187.794 107.204 213.685 75.3208 213.685Z" fill="#959595"/>
<path d="M154.684 85.9148C149.939 85.9148 146.091 89.7552 146.091 94.4926V106.165C146.091 110.902 149.938 114.743 154.684 114.743C159.43 114.743 163.278 110.902 163.278 106.165V94.4926C163.278 89.7547 159.43 85.9148 154.684 85.9148Z" fill="#959595"/>
<path d="M129.343 60.6189H117.65C112.904 60.6189 109.057 64.4593 109.057 69.1967C109.057 73.9342 112.904 77.7746 117.65 77.7746H129.343C134.088 77.7746 137.936 73.9342 137.936 69.1967C137.936 64.4593 134.089 60.6189 129.343 60.6189Z" fill="#959595"/>
<path d="M191.719 60.6189H180.026C175.28 60.6189 171.433 64.4593 171.433 69.1967C171.433 73.9342 175.28 77.7746 180.026 77.7746H191.719C196.465 77.7746 200.313 73.9342 200.313 69.1967C200.313 64.4593 196.465 60.6189 191.719 60.6189Z" fill="#959595"/>
</svg>
